<?xml version="1.0" encoding="UTF-8"?>
<svg width="14px" height="14px" viewBox="0 0 14 14" version="1.1" xmlns="http://www.w3.org/2000/svg" xmlns:xlink="http://www.w3.org/1999/xlink">
    <title>Star Icon Copy 3</title>
    <desc>Created with Sketch.</desc>
    <g id="Rating-Review" stroke="none" stroke-width="1" fill="none" fill-rule="evenodd">
        <g id="Ürün-Detay---Review" transform="translate(-636.000000, -1548.000000)" fill="#FFC000">
            <g id="Group-34" transform="translate(301.000000, 1431.000000)">
                <g id="Group-48" transform="translate(259.000000, 75.000000)">
                    <g id="Group-7">
                        <g id="Group-24">
                            <g id="Group-23">
                                <g id="Group-22">
                                    <g id="progress2">
                                        <g id="Group-44" transform="translate(0.000000, 38.000000)">
                                            <g id="Group-2">
                                                <g id="Group-40" transform="translate(19.000000, 4.000000)">
                                                    <g id="Star-Icon" transform="translate(57.000000, 0.000000)">
                                                        <path d="M13.667587,5.01375752 C13.814132,5.03783319 13.9348161,5.14316423 13.980791,5.29062769 C14.0267658,5.43809114 13.9894112,5.60060189 13.8773474,5.70894239 L10.7280672,8.94411006 L11.4837795,13.4733448 C11.4923998,13.5034394 11.4952733,13.533534 11.4952733,13.566638 C11.4952733,13.7893379 11.319994,13.9729149 11.1073601,13.9729149 C11.047018,13.9729149 10.986676,13.9578676 10.9292074,13.927773 L7.01846796,11.7880482 L3.11922228,13.9518487 C3.06175366,13.9849527 3.00141161,14 2.93819613,14 C2.85774007,14 2.777284,13.9729149 2.7111951,13.9217541 C2.590511,13.8314703 2.53016895,13.677988 2.55602983,13.5245056 L3.2887547,8.96818573 L0.119360454,5.75107481 C0.0130435118,5.64574377 -0.0271845203,5.48323302 0.0187903735,5.33576956 C0.0647652674,5.1883061 0.185449364,5.08297506 0.331994338,5.0588994 L4.69960925,4.37876182 L6.63917509,0.228718831 C6.705264,0.0872742906 6.84031525,8.8817842e-16 6.98686022,8.8817842e-16 C7.1334052,8.8817842e-16 7.26845645,0.0872742906 7.33454536,0.225709372 L9.29997207,4.36371453 L13.667587,5.01375752 Z" id="Shape-Copy-9"></path>
                                                    </g>
                                                </g>
                                            </g>
                                        </g>
                                    </g>
                                </g>
                            </g>
                        </g>
                    </g>
                </g>
            </g>
        </g>
    </g>
</svg>